<?xml version="1.0" standalone="no"?>
<!DOCTYPE svg PUBLIC "-//W3C//DTD SVG 20010904//EN"
 "http://www.w3.org/TR/2001/REC-SVG-20010904/DTD/svg10.dtd">
<svg version="1.0" xmlns="http://www.w3.org/2000/svg"
 width="623.000000pt" height="623.000000pt" viewBox="0 0 623.000000 623.000000"
 preserveAspectRatio="xMidYMid meet">
<metadata>
Created by potrace 1.14, written by Peter Selinger 2001-2017
</metadata>
<g transform="translate(0.000000,623.000000) scale(0.100000,-0.100000)"
fill="#000000" stroke="none">
<path d="M5327 6177 c-4 -12 -172 -277 -381 -601 -100 -156 -506 -805 -531
-848 -16 -29 -245 -400 -270 -438 -13 -19 -118 -192 -234 -385 l-212 -350
-557 0 -557 0 1 -27 c4 -80 -4 -73 79 -71 167 3 295 -64 345 -182 22 -51 30
-200 32 -566 l1 -257 -125 -213 c-69 -118 -158 -271 -198 -340 -40 -69 -78
-126 -84 -126 -6 -1 -54 -8 -106 -16 -104 -16 -321 -16 -405 2 -188 38 -266
63 -403 127 -213 100 -387 252 -521 459 -131 201 -214 444 -249 730 -10 82 -9
414 1 500 74 623 376 1157 767 1354 55 28 188 75 245 86 183 37 422 41 565 10
41 -9 84 -18 94 -20 89 -19 214 -75 311 -140 211 -141 371 -362 475 -655 27
-75 40 -89 83 -87 l32 2 -1 65 c0 36 -4 106 -8 155 -11 125 -13 148 -21 250
-4 50 -8 102 -10 116 -2 14 -6 66 -10 115 -3 49 -8 103 -10 119 -2 17 -7 73
-11 125 -4 52 -8 104 -9 115 -1 11 -3 26 -4 33 -1 9 -15 12 -48 10 l-46 -3
-13 -65 c-34 -170 -75 -181 -338 -89 -372 131 -515 161 -746 159 -141 -1 -247
-9 -352 -26 -78 -12 -100 -17 -186 -39 -477 -126 -888 -481 -1132 -980 -101
-207 -164 -404 -186 -585 -10 -81 -11 -385 -2 -465 42 -349 129 -585 301 -815
242 -323 625 -570 1062 -685 209 -55 366 -74 601 -71 l170 1 -209 -365 c-359
-626 -497 -873 -497 -887 0 -29 21 -10 67 59 26 40 52 81 58 91 5 9 59 95 120
190 153 241 575 912 650 1032 34 55 159 260 279 455 120 195 229 372 242 392
13 21 24 42 24 47 0 5 4 11 8 13 5 1 31 41 59 88 27 47 163 273 301 503 139
230 252 422 252 428 0 18 19 9 67 -33 156 -136 459 -333 783 -510 121 -66 365
-211 440 -261 206 -138 327 -327 336 -522 4 -103 -7 -151 -56 -250 -41 -82
-78 -127 -152 -188 -46 -37 -163 -99 -213 -112 -16 -5 -34 -10 -40 -12 -74
-26 -292 -36 -400 -18 -266 43 -506 178 -650 365 -84 110 -121 199 -181 432
-14 57 -27 108 -29 113 -1 6 -6 25 -10 43 -8 33 -9 35 -50 35 -14 0 -31 -1
-38 -2 -9 -1 -12 -125 -11 -594 1 -325 2 -594 3 -597 1 -5 44 -5 78 -1 6 0 21
32 33 70 32 99 53 116 143 115 78 -1 138 -16 380 -93 286 -91 433 -109 714
-88 367 27 685 241 852 574 58 116 83 223 87 368 1 72 -2 150 -8 175 -51 213
-126 350 -267 491 -112 111 -292 233 -536 364 -49 26 -94 51 -100 55 -5 4 -59
33 -120 65 -169 89 -331 183 -425 246 -129 86 -330 245 -330 262 0 4 55 100
121 214 119 202 150 257 173 298 6 11 24 39 39 62 15 24 27 44 27 46 0 3 28
53 63 113 l64 109 73 -2 c200 -5 444 -117 603 -276 99 -98 156 -192 211 -347
30 -82 72 -249 80 -319 3 -24 8 -46 11 -49 10 -10 76 -8 85 3 10 12 13 1153 4
1188 -6 18 -57 24 -81 9 -9 -5 -73 -144 -73 -158 0 -1 -15 -9 -34 -18 -68 -32
-123 -20 -373 78 -93 37 -250 79 -335 91 -27 3 -48 8 -48 11 0 3 37 68 81 146
45 78 93 163 108 188 14 26 106 189 204 363 98 174 176 321 172 327 -9 14 -22
13 -28 -3z"/>
</g>
</svg>
